#include "hUGEDriver.h"
#include <stddef.h>

static const unsigned char order_cnt = 10;

static const unsigned char P0[] = {
    DN(___,0,0x000),
    DN(___,0,0x000),
    DN(___,0,0x000),
    DN(___,0,0x000),
    DN(___,0,0x000),
    DN(___,0,0x000),
    DN(___,0,0x000),
    DN(___,0,0x000),
    DN(___,0,0x000),
    DN(___,0,0x000),
    DN(___,0,0x000),
    DN(___,0,0x000),
    DN(___,0,0x000),
    DN(___,0,0x000),
    DN(___,0,0x000),
    DN(___,0,0x000),
    DN(___,0,0x000),
    DN(___,0,0x000),
    DN(___,0,0x000),
    DN(___,0,0x000),
    DN(___,0,0x000),
    DN(___,0,0x000),
    DN(___,0,0x000),
    DN(___,0,0x000),
    DN(___,0,0x000),
    DN(___,0,0x000),
    DN(___,0,0x000),
    DN(___,0,0x000),
    DN(___,0,0x000),
    DN(___,0,0x000),
    DN(___,0,0x000),
    DN(___,0,0x000),
    DN(___,0,0x000),
    DN(___,0,0x000),
    DN(___,0,0x000),
    DN(___,0,0x000),
    DN(___,0,0x000),
    DN(___,0,0x000),
    DN(___,0,0x000),
    DN(___,0,0x000),
    DN(___,0,0x000),
    DN(___,0,0x000),
    DN(___,0,0x000),
    DN(___,0,0x000),
    DN(___,0,0x000),
    DN(___,0,0x000),
    DN(___,0,0x000),
    DN(___,0,0x000),
    DN(___,0,0x000),
    DN(___,0,0x000),
    DN(___,0,0x000),
    DN(___,0,0x000),
    DN(___,0,0x000),
    DN(___,0,0x000),
    DN(___,0,0x000),
    DN(___,0,0x000),
    DN(___,0,0x000),
    DN(___,0,0x000),
    DN(___,0,0x000),
    DN(___,0,0x000),
    DN(___,0,0x000),
    DN(___,0,0x000),
    DN(___,0,0x000),
    DN(___,0,0x000),
};
static const unsigned char P1[] = {
    DN(Cs5,1,0xC03),
    DN(___,0,0x000),
    DN(___,0,0x4C5),
    DN(___,0,0x4C5),
    DN(___,0,0x4C5),
    DN(___,0,0x4C5),
    DN(___,0,0x4C5),
    DN(___,0,0x4C5),
    DN(___,0,0x4C5),
    DN(___,0,0x4C5),
    DN(___,0,0x4C5),
    DN(___,0,0x4C5),
    DN(___,0,0x4C5),
    DN(___,0,0x4C5),
    DN(___,0,0x442),
    DN(___,0,0x442),
    DN(___,0,0x442),
    DN(___,0,0x442),
    DN(___,0,0x442),
    DN(___,0,0x442),
    DN(___,0,0x442),
    DN(___,0,0x442),
    DN(___,0,0x442),
    DN(___,0,0x442),
    DN(___,0,0x442),
    DN(___,0,0x442),
    DN(___,0,0x442),
    DN(___,0,0x442),
    DN(___,0,0x442),
    DN(___,0,0x442),
    DN(___,0,0x442),
    DN(___,0,0x442),
    DN(___,0,0x442),
    DN(___,0,0x442),
    DN(___,0,0x442),
    DN(___,0,0x442),
    DN(___,0,0x442),
    DN(___,0,0x442),
    DN(___,0,0x442),
    DN(___,0,0x442),
    DN(___,0,0x442),
    DN(___,0,0x442),
    DN(___,0,0x442),
    DN(___,0,0x442),
    DN(___,0,0x442),
    DN(___,0,0x442),
    DN(___,0,0x442),
    DN(___,0,0x442),
    DN(___,0,0x442),
    DN(___,0,0x442),
    DN(___,0,0x442),
    DN(___,0,0x442),
    DN(___,0,0x442),
    DN(___,0,0x442),
    DN(___,0,0x442),
    DN(___,0,0x442),
    DN(___,0,0x442),
    DN(___,0,0x442),
    DN(___,0,0x442),
    DN(___,0,0x442),
    DN(___,0,0x442),
    DN(___,0,0x442),
    DN(___,0,0x442),
    DN(___,0,0x442),
};
static const unsigned char P2[] = {
    DN(A_5,5,0xC04),
    DN(___,0,0x000),
    DN(___,0,0x000),
    DN(___,0,0x000),
    DN(G_4,5,0xC04),
    DN(___,0,0x000),
    DN(___,0,0x000),
    DN(___,0,0x000),
    DN(A_4,5,0xC04),
    DN(___,0,0x000),
    DN(___,0,0x000),
    DN(___,0,0x000),
    DN(A_5,5,0xC04),
    DN(___,0,0x000),
    DN(___,0,0x000),
    DN(___,0,0x000),
    DN(G_4,5,0xC04),
    DN(___,0,0x000),
    DN(___,0,0x000),
    DN(___,0,0x000),
    DN(A_4,5,0xC04),
    DN(___,0,0x000),
    DN(___,0,0x000),
    DN(___,0,0x000),
    DN(E_5,5,0xC04),
    DN(___,0,0x000),
    DN(Ds5,5,0xC04),
    DN(___,0,0x000),
    DN(Ds4,5,0xC04),
    DN(___,0,0x000),
    DN(E_4,5,0xC04),
    DN(___,0,0x000),
    DN(F_4,5,0xC04),
    DN(___,0,0x000),
    DN(Fs4,5,0xC04),
    DN(___,0,0x000),
    DN(E_5,5,0xC04),
    DN(___,0,0x000),
    DN(Ds5,5,0xC04),
    DN(___,0,0x000),
    DN(Ds4,5,0xC04),
    DN(___,0,0x000),
    DN(E_4,5,0xC04),
    DN(___,0,0x000),
    DN(F_4,5,0xC04),
    DN(___,0,0x000),
    DN(Fs4,5,0xC04),
    DN(___,0,0x000),
    DN(A_5,5,0xC04),
    DN(___,0,0x000),
    DN(___,0,0x000),
    DN(___,0,0x000),
    DN(G_4,5,0xC04),
    DN(___,0,0x000),
    DN(___,0,0x000),
    DN(___,0,0x000),
    DN(A_4,5,0xC04),
    DN(___,0,0x000),
    DN(___,0,0x000),
    DN(___,0,0x000),
    DN(A_5,5,0xC04),
    DN(___,0,0x000),
    DN(___,0,0x000),
    DN(___,0,0x000),
};
static const unsigned char P5[] = {
    DN(___,0,0x4C5),
    DN(___,0,0x4C5),
    DN(___,0,0x4C5),
    DN(___,0,0x4C5),
    DN(___,0,0x4C5),
    DN(___,0,0x4C5),
    DN(___,0,0x4C5),
    DN(___,0,0x4C5),
    DN(___,0,0x4C5),
    DN(___,0,0x4C5),
    DN(___,0,0x4C5),
    DN(___,0,0x4C5),
    DN(___,0,0x4C5),
    DN(___,0,0x4C5),
    DN(___,0,0x4C5),
    DN(___,0,0x4C5),
    DN(___,0,0x4C5),
    DN(___,0,0x4C5),
    DN(___,0,0x4C5),
    DN(___,0,0x4C5),
    DN(___,0,0x4C5),
    DN(___,0,0x4C5),
    DN(___,0,0x4C5),
    DN(___,0,0x4C5),
    DN(___,0,0x4C5),
    DN(___,0,0x4C5),
    DN(___,0,0x4C5),
    DN(___,0,0x4C5),
    DN(___,0,0x4C5),
    DN(___,0,0x4C5),
    DN(___,0,0x4C5),
    DN(___,0,0x000),
    DN(Cs5,1,0xC03),
    DN(___,0,0x000),
    DN(___,0,0x4C5),
    DN(___,0,0x4C5),
    DN(___,0,0x4C5),
    DN(___,0,0x4C5),
    DN(Cs4,0,0x4C5),
    DN(___,0,0x4C5),
    DN(___,0,0x4C5),
    DN(___,0,0x4C5),
    DN(___,0,0x4C5),
    DN(___,0,0x000),
    DN(Cs5,1,0xC03),
    DN(___,0,0x000),
    DN(___,0,0x4C5),
    DN(___,0,0x4C5),
    DN(___,0,0x4C5),
    DN(___,0,0x4C5),
    DN(Cs4,0,0x4C5),
    DN(___,0,0x4C5),
    DN(___,0,0x4C5),
    DN(___,0,0x4C5),
    DN(___,0,0x4C5),
    DN(___,0,0x000),
    DN(C_5,1,0xC03),
    DN(___,0,0x000),
    DN(___,0,0x4C5),
    DN(___,0,0x4C5),
    DN(___,0,0x4C5),
    DN(___,0,0x4C5),
    DN(Cs4,0,0x4C5),
    DN(___,0,0x4C5),
};
static const unsigned char P6[] = {
    DN(G_4,5,0xC04),
    DN(___,0,0x000),
    DN(___,0,0x000),
    DN(___,0,0x000),
    DN(A_4,5,0xC04),
    DN(___,0,0x000),
    DN(___,0,0x000),
    DN(___,0,0x000),
    DN(E_5,5,0xC04),
    DN(___,0,0x000),
    DN(Ds5,5,0xC04),
    DN(___,0,0x000),
    DN(Ds4,5,0xC04),
    DN(___,0,0x000),
    DN(E_4,5,0xC04),
    DN(___,0,0x000),
    DN(F_4,5,0xC04),
    DN(___,0,0x000),
    DN(Fs4,5,0xC04),
    DN(___,0,0x000),
    DN(E_5,5,0xC04),
    DN(___,0,0x000),
    DN(Ds5,5,0xC04),
    DN(___,0,0x000),
    DN(Ds4,5,0xC04),
    DN(___,0,0x000),
    DN(E_4,5,0xC04),
    DN(___,0,0x000),
    DN(F_4,5,0xC04),
    DN(___,0,0x000),
    DN(Fs4,5,0xC04),
    DN(___,0,0x000),
    DN(A_5,5,0xC04),
    DN(___,0,0x000),
    DN(Gs5,5,0xC04),
    DN(___,0,0x000),
    DN(G_4,5,0xC04),
    DN(___,0,0x000),
    DN(Gs4,5,0xC04),
    DN(___,0,0x000),
    DN(A_4,5,0xC04),
    DN(___,0,0x000),
    DN(As4,5,0xC04),
    DN(___,0,0x000),
    DN(A_5,5,0xC04),
    DN(___,0,0x000),
    DN(Gs5,5,0xC04),
    DN(___,0,0x000),
    DN(G_4,5,0xC04),
    DN(___,0,0x000),
    DN(Gs4,5,0xC04),
    DN(___,0,0x000),
    DN(A_4,5,0xC04),
    DN(___,0,0x000),
    DN(As4,5,0xC04),
    DN(___,0,0x000),
    DN(E_5,5,0xC04),
    DN(___,0,0x000),
    DN(Ds5,5,0xC04),
    DN(___,0,0x000),
    DN(Ds4,5,0xC04),
    DN(___,0,0x000),
    DN(E_4,5,0xC04),
    DN(___,0,0x000),
};
static const unsigned char P8[] = {
    DN(F_4,5,0xC04),
    DN(___,0,0xC04),
    DN(Fs4,5,0xC04),
    DN(___,0,0xC04),
    DN(E_5,5,0xC04),
    DN(___,0,0xC04),
    DN(Ds5,5,0xC04),
    DN(___,0,0xC04),
    DN(Ds4,5,0xC04),
    DN(___,0,0xC04),
    DN(E_4,5,0xC04),
    DN(___,0,0xC04),
    DN(F_4,5,0xC04),
    DN(___,0,0xC04),
    DN(Fs4,5,0xC04),
    DN(___,0,0xC04),
    DN(A_5,5,0xC04),
    DN(___,0,0xC04),
    DN(Gs5,5,0xC04),
    DN(___,0,0xC04),
    DN(G_4,5,0xC04),
    DN(___,0,0xC04),
    DN(Gs4,5,0xC04),
    DN(___,0,0xC04),
    DN(A_4,5,0xC04),
    DN(___,0,0xC04),
    DN(As4,5,0xC04),
    DN(___,0,0xC04),
    DN(A_5,5,0xC04),
    DN(___,0,0xC04),
    DN(Gs5,5,0xC04),
    DN(___,0,0xC04),
    DN(G_4,5,0xC04),
    DN(___,0,0xC04),
    DN(Gs4,5,0xC04),
    DN(___,0,0xC04),
    DN(A_4,5,0xC04),
    DN(___,0,0xC04),
    DN(As4,5,0xC04),
    DN(___,0,0xC04),
    DN(E_5,5,0xC04),
    DN(___,0,0xC04),
    DN(Ds5,5,0xC04),
    DN(___,0,0xC04),
    DN(Ds4,5,0xC04),
    DN(___,0,0xC04),
    DN(E_4,5,0xC04),
    DN(___,0,0xC04),
    DN(F_4,5,0xC04),
    DN(___,0,0xC04),
    DN(Fs4,5,0xC04),
    DN(___,0,0xC04),
    DN(E_5,5,0xC04),
    DN(___,0,0xC04),
    DN(Ds5,5,0xC04),
    DN(___,0,0xC04),
    DN(Ds4,5,0xC04),
    DN(___,0,0xC04),
    DN(E_4,5,0xC04),
    DN(___,0,0xC04),
    DN(F_4,5,0xC04),
    DN(___,0,0xC04),
    DN(Fs4,5,0xC04),
    DN(___,0,0x000),
};
static const unsigned char P9[] = {
    DN(___,0,0x4C5),
    DN(___,0,0x4C5),
    DN(___,0,0x4C5),
    DN(___,0,0x000),
    DN(C_5,1,0xC03),
    DN(___,0,0x000),
    DN(___,0,0x4C5),
    DN(___,0,0x4C5),
    DN(___,0,0x4C5),
    DN(___,0,0x4C5),
    DN(Cs4,0,0xE03),
    DN(___,0,0x4C5),
    DN(___,0,0x4C5),
    DN(___,0,0x4C5),
    DN(___,0,0x4C5),
    DN(___,0,0x000),
    DN(Cs5,1,0xC03),
    DN(___,0,0x000),
    DN(___,0,0x4C5),
    DN(___,0,0x4C5),
    DN(___,0,0x4C5),
    DN(___,0,0x4C5),
    DN(Cs4,0,0xE03),
    DN(___,0,0x4C5),
    DN(___,0,0x4C5),
    DN(___,0,0x4C5),
    DN(___,0,0x4C5),
    DN(___,0,0x000),
    DN(Cs5,1,0xC03),
    DN(___,0,0x000),
    DN(___,0,0x4C5),
    DN(___,0,0x4C5),
    DN(___,0,0x4C5),
    DN(___,0,0x4C5),
    DN(Cs4,0,0xE03),
    DN(___,0,0x4C5),
    DN(___,0,0x4C5),
    DN(___,0,0x4C5),
    DN(___,0,0x4C5),
    DN(___,0,0x000),
    DN(C_5,1,0xC03),
    DN(___,0,0x000),
    DN(___,0,0x4C5),
    DN(___,0,0x4C5),
    DN(___,0,0x4C5),
    DN(___,0,0x4C5),
    DN(Cs4,0,0xE03),
    DN(___,0,0x4C5),
    DN(___,0,0x4C5),
    DN(___,0,0x4C5),
    DN(___,0,0x4C5),
    DN(___,0,0x000),
    DN(C_5,1,0xC03),
    DN(___,0,0x000),
    DN(___,0,0x4C5),
    DN(___,0,0x4C5),
    DN(___,0,0x4C5),
    DN(___,0,0x4C5),
    DN(___,0,0x4C5),
    DN(Cs4,0,0xE03),
    DN(___,0,0x4C5),
    DN(___,0,0x4C5),
    DN(___,0,0x4C5),
    DN(___,0,0x4C5),
};
static const unsigned char P10[] = {
    DN(F_4,5,0xC04),
    DN(___,0,0x000),
    DN(Fs4,5,0xC04),
    DN(___,0,0x000),
    DN(E_5,5,0xC04),
    DN(___,0,0x000),
    DN(Ds5,5,0xC04),
    DN(___,0,0x000),
    DN(Ds4,5,0xC04),
    DN(___,0,0x000),
    DN(E_4,5,0xC04),
    DN(___,0,0x000),
    DN(F_4,5,0xC04),
    DN(___,0,0x000),
    DN(Fs4,5,0xC04),
    DN(___,0,0x000),
    DN(A_5,5,0xC04),
    DN(___,0,0x000),
    DN(D_4,5,0xC04),
    DN(___,0,0x000),
    DN(F_4,5,0xC04),
    DN(___,0,0x000),
    DN(Gs4,5,0xC04),
    DN(___,0,0x000),
    DN(Ds5,5,0xC04),
    DN(___,0,0x000),
    DN(E_5,5,0xC04),
    DN(___,0,0x000),
    DN(A_5,5,0xC04),
    DN(___,0,0x000),
    DN(D_4,5,0xC04),
    DN(___,0,0x000),
    DN(F_4,5,0xC04),
    DN(___,0,0x000),
    DN(Gs4,5,0xC04),
    DN(___,0,0x000),
    DN(Ds5,5,0xC04),
    DN(___,0,0x000),
    DN(E_5,5,0xC04),
    DN(___,0,0x000),
    DN(E_5,5,0xC04),
    DN(___,0,0x000),
    DN(Ds5,5,0xC04),
    DN(___,0,0x000),
    DN(Ds4,5,0xC04),
    DN(___,0,0x000),
    DN(E_4,5,0xC04),
    DN(___,0,0x000),
    DN(F_4,5,0xC04),
    DN(___,0,0x000),
    DN(Fs4,5,0xC04),
    DN(___,0,0x000),
    DN(E_5,5,0xC04),
    DN(___,0,0x000),
    DN(Ds5,5,0xC04),
    DN(___,0,0x000),
    DN(Ds4,5,0xC04),
    DN(___,0,0x000),
    DN(E_4,5,0xC04),
    DN(___,0,0x000),
    DN(F_4,5,0xC04),
    DN(___,0,0x000),
    DN(Fs4,5,0xC04),
    DN(___,0,0x000),
};
static const unsigned char P11[] = {
    DN(___,0,0x000),
    DN(___,0,0x000),
    DN(___,0,0x000),
    DN(___,0,0x000),
    DN(___,0,0x000),
    DN(___,0,0x000),
    DN(___,0,0x000),
    DN(___,0,0x000),
    DN(___,0,0x000),
    DN(___,0,0x000),
    DN(___,0,0x000),
    DN(___,0,0x000),
    DN(___,0,0x000),
    DN(___,0,0x000),
    DN(___,0,0x000),
    DN(___,0,0x000),
    DN(B_4,6,0xE03),
    DN(___,0,0x000),
    DN(___,0,0x000),
    DN(___,0,0x000),
    DN(___,0,0x000),
    DN(___,0,0x000),
    DN(___,0,0x000),
    DN(___,0,0x000),
    DN(___,0,0x000),
    DN(___,0,0x000),
    DN(B_4,6,0xE03),
    DN(___,0,0x000),
    DN(B_4,6,0xE03),
    DN(___,0,0x000),
    DN(B_4,6,0xE03),
    DN(___,0,0x000),
    DN(___,0,0x000),
    DN(___,0,0x000),
    DN(___,0,0x000),
    DN(___,0,0x000),
    DN(___,0,0x000),
    DN(___,0,0x000),
    DN(___,0,0x000),
    DN(___,0,0x000),
    DN(B_4,6,0xE03),
    DN(___,0,0x000),
    DN(___,0,0x000),
    DN(___,0,0x000),
    DN(___,0,0x000),
    DN(___,0,0x000),
    DN(___,0,0x000),
    DN(___,0,0x000),
    DN(___,0,0x000),
    DN(___,0,0x000),
    DN(B_4,6,0xE03),
    DN(___,0,0x000),
    DN(B_4,6,0xE03),
    DN(___,0,0x000),
    DN(B_4,6,0xE03),
    DN(___,0,0x000),
    DN(B_4,6,0xE03),
    DN(___,0,0x000),
    DN(___,0,0x000),
    DN(___,0,0x000),
    DN(___,0,0x000),
    DN(___,0,0x000),
    DN(___,0,0x000),
    DN(___,0,0x000),
};
static const unsigned char P12[] = {
    DN(A_5,5,0xC04),
    DN(___,0,0xC04),
    DN(Gs5,5,0xC04),
    DN(___,0,0xC04),
    DN(G_4,5,0xC04),
    DN(___,0,0xC04),
    DN(Gs4,5,0xC04),
    DN(___,0,0xC04),
    DN(A_4,5,0xC04),
    DN(___,0,0xC04),
    DN(As4,5,0xC04),
    DN(___,0,0xC04),
    DN(A_5,5,0xC04),
    DN(___,0,0xC04),
    DN(Gs5,5,0xC04),
    DN(___,0,0xC04),
    DN(G_4,5,0xC04),
    DN(___,0,0xC04),
    DN(Gs4,5,0xC04),
    DN(___,0,0xC04),
    DN(A_4,5,0xC04),
    DN(___,0,0xC04),
    DN(As4,5,0xC04),
    DN(___,0,0xC04),
    DN(E_5,5,0xC04),
    DN(___,0,0xC04),
    DN(Ds5,5,0xC04),
    DN(___,0,0xC04),
    DN(Ds4,5,0xC04),
    DN(___,0,0xC04),
    DN(E_4,5,0xC04),
    DN(___,0,0xC04),
    DN(F_4,5,0xC04),
    DN(___,0,0xC04),
    DN(Fs4,5,0xC04),
    DN(___,0,0xC04),
    DN(E_5,5,0xC04),
    DN(___,0,0xC04),
    DN(Ds5,5,0xC04),
    DN(___,0,0xC04),
    DN(Ds4,5,0xC04),
    DN(___,0,0xC04),
    DN(E_4,5,0xC04),
    DN(___,0,0xC04),
    DN(F_4,5,0xC04),
    DN(___,0,0xC04),
    DN(Fs4,5,0xC04),
    DN(___,0,0xC04),
    DN(A_5,5,0xC04),
    DN(___,0,0xC04),
    DN(Gs5,5,0xC04),
    DN(___,0,0xC04),
    DN(G_4,5,0xC04),
    DN(___,0,0xC04),
    DN(Gs4,5,0xC04),
    DN(___,0,0xC04),
    DN(A_4,5,0xC04),
    DN(___,0,0xC04),
    DN(As4,5,0xC04),
    DN(___,0,0xC04),
    DN(A_5,5,0xC04),
    DN(___,0,0xC04),
    DN(Gs5,5,0xC04),
    DN(___,0,0xC04),
};
static const unsigned char P13[] = {
    DN(Cs5,1,0xC03),
    DN(___,0,0x000),
    DN(___,0,0x4C5),
    DN(___,0,0x4C5),
    DN(___,0,0x4C5),
    DN(___,0,0x4C5),
    DN(Cs4,0,0xE03),
    DN(___,0,0x4C5),
    DN(___,0,0x4C5),
    DN(___,0,0x4C5),
    DN(___,0,0x4C5),
    DN(___,0,0x000),
    DN(Cs5,1,0xC03),
    DN(___,0,0x000),
    DN(___,0,0x4C5),
    DN(___,0,0x4C5),
    DN(___,0,0x4C5),
    DN(___,0,0x4C5),
    DN(Cs4,0,0xE03),
    DN(___,0,0x4C5),
    DN(___,0,0x4C5),
    DN(___,0,0x4C5),
    DN(___,0,0x4C5),
    DN(___,0,0x000),
    DN(C_5,1,0xC03),
    DN(___,0,0x000),
    DN(___,0,0x4C5),
    DN(___,0,0x4C5),
    DN(___,0,0x4C5),
    DN(___,0,0x4C5),
    DN(Cs4,0,0xE03),
    DN(___,0,0x4C5),
    DN(___,0,0x4C5),
    DN(___,0,0x4C5),
    DN(___,0,0x4C5),
    DN(___,0,0x000),
    DN(C_5,1,0xC03),
    DN(___,0,0x000),
    DN(___,0,0x4C5),
    DN(___,0,0x4C5),
    DN(___,0,0x4C5),
    DN(___,0,0x4C5),
    DN(Cs4,0,0xE03),
    DN(___,0,0x4C5),
    DN(___,0,0x4C5),
    DN(___,0,0x4C5),
    DN(___,0,0x4C5),
    DN(___,0,0xE03),
    DN(Cs5,1,0xC03),
    DN(___,0,0x000),
    DN(___,0,0x4C5),
    DN(___,0,0x4C5),
    DN(___,0,0x4C5),
    DN(___,0,0x4C5),
    DN(Cs4,0,0xE03),
    DN(___,0,0x4C5),
    DN(___,0,0x4C5),
    DN(___,0,0x4C5),
    DN(___,0,0x4C5),
    DN(___,0,0x000),
    DN(Cs5,1,0xC03),
    DN(___,0,0x000),
    DN(___,0,0x4C5),
    DN(___,0,0x4C5),
};
static const unsigned char P14[] = {
    DN(A_5,5,0xC04),
    DN(___,0,0x000),
    DN(D_4,5,0xC04),
    DN(___,0,0x000),
    DN(F_4,5,0xC04),
    DN(___,0,0x000),
    DN(Gs4,5,0xC04),
    DN(___,0,0x000),
    DN(Ds5,5,0xC04),
    DN(___,0,0x000),
    DN(E_5,5,0xC04),
    DN(___,0,0x000),
    DN(A_5,5,0xC04),
    DN(___,0,0x000),
    DN(D_4,5,0xC04),
    DN(___,0,0x000),
    DN(F_4,5,0xC04),
    DN(___,0,0x000),
    DN(Gs4,5,0xC04),
    DN(___,0,0x000),
    DN(Ds5,5,0xC04),
    DN(___,0,0x000),
    DN(E_5,5,0xC04),
    DN(___,0,0x000),
    DN(E_5,5,0xC04),
    DN(___,0,0x000),
    DN(Ds5,5,0xC04),
    DN(___,0,0x000),
    DN(Ds4,5,0xC04),
    DN(___,0,0x000),
    DN(E_4,5,0xC04),
    DN(___,0,0x000),
    DN(F_4,5,0xC04),
    DN(___,0,0x000),
    DN(Fs4,5,0xC04),
    DN(___,0,0x000),
    DN(E_5,5,0xC04),
    DN(___,0,0x000),
    DN(Ds5,5,0xC04),
    DN(___,0,0x000),
    DN(Ds4,5,0xC04),
    DN(___,0,0x000),
    DN(E_4,5,0xC04),
    DN(___,0,0x000),
    DN(F_4,5,0xC04),
    DN(___,0,0x000),
    DN(Fs4,5,0xC04),
    DN(___,0,0x000),
    DN(A_5,5,0xC04),
    DN(___,0,0x000),
    DN(Gs5,5,0xC04),
    DN(___,0,0x000),
    DN(G_4,5,0xC04),
    DN(___,0,0x000),
    DN(Gs4,5,0xC04),
    DN(___,0,0x000),
    DN(A_4,5,0xC04),
    DN(___,0,0x000),
    DN(As4,5,0xC04),
    DN(___,0,0x000),
    DN(A_5,5,0xC04),
    DN(___,0,0x000),
    DN(D_4,5,0xC04),
    DN(___,0,0x000),
};
static const unsigned char P15[] = {
    DN(B_4,6,0xE03),
    DN(___,0,0x000),
    DN(___,0,0x000),
    DN(___,0,0x000),
    DN(___,0,0x000),
    DN(___,0,0x000),
    DN(___,0,0x000),
    DN(___,0,0x000),
    DN(___,0,0x000),
    DN(___,0,0x000),
    DN(B_4,6,0xE03),
    DN(___,0,0x000),
    DN(B_4,6,0xE03),
    DN(___,0,0x000),
    DN(B_4,6,0xE03),
    DN(___,0,0x000),
    DN(___,0,0x000),
    DN(___,0,0x000),
    DN(___,0,0x000),
    DN(___,0,0x000),
    DN(___,0,0x000),
    DN(___,0,0x000),
    DN(___,0,0x000),
    DN(___,0,0x000),
    DN(B_4,6,0xE03),
    DN(___,0,0x000),
    DN(___,0,0x000),
    DN(___,0,0x000),
    DN(___,0,0x000),
    DN(___,0,0x000),
    DN(___,0,0x000),
    DN(___,0,0x000),
    DN(___,0,0x000),
    DN(___,0,0x000),
    DN(B_4,6,0xE03),
    DN(___,0,0x000),
    DN(B_4,6,0xE03),
    DN(___,0,0x000),
    DN(B_4,6,0xE03),
    DN(___,0,0x000),
    DN(B_4,6,0xE03),
    DN(___,0,0x000),
    DN(B_4,6,0xE03),
    DN(___,0,0x000),
    DN(B_4,6,0xE03),
    DN(___,0,0x000),
    DN(B_4,6,0xE03),
    DN(___,0,0x000),
    DN(B_4,6,0xE03),
    DN(___,0,0x000),
    DN(___,0,0x000),
    DN(___,0,0x000),
    DN(___,0,0x000),
    DN(___,0,0x000),
    DN(___,0,0x000),
    DN(___,0,0x000),
    DN(___,0,0x000),
    DN(___,0,0x000),
    DN(B_4,6,0xE03),
    DN(___,0,0x000),
    DN(B_4,6,0xE03),
    DN(___,0,0x000),
    DN(B_4,6,0xE03),
    DN(___,0,0x000),
};
static const unsigned char P20[] = {
    DN(G_4,5,0xC04),
    DN(___,0,0xC04),
    DN(Gs4,5,0xC04),
    DN(___,0,0xC04),
    DN(A_4,5,0xC04),
    DN(___,0,0xC04),
    DN(As4,5,0xC04),
    DN(___,0,0x000),
    DN(E_5,5,0xC04),
    DN(___,0,0xC04),
    DN(Ds5,5,0xC04),
    DN(___,0,0xC04),
    DN(Ds4,5,0xC04),
    DN(___,0,0xC04),
    DN(E_4,5,0xC04),
    DN(___,0,0xC04),
    DN(F_4,5,0xC04),
    DN(___,0,0xC04),
    DN(Fs4,5,0xC04),
    DN(___,0,0xC04),
    DN(E_5,5,0xC04),
    DN(___,0,0xC04),
    DN(Ds5,5,0xC04),
    DN(___,0,0xC04),
    DN(Ds4,5,0xC04),
    DN(___,0,0xC04),
    DN(E_4,5,0xC04),
    DN(___,0,0xC04),
    DN(F_4,5,0xC04),
    DN(___,0,0xC04),
    DN(Fs4,5,0xC04),
    DN(___,0,0x000),
    DN(___,0,0x000),
    DN(___,0,0x000),
    DN(___,0,0x000),
    DN(___,0,0x000),
    DN(___,0,0x000),
    DN(___,0,0x000),
    DN(___,0,0x000),
    DN(___,0,0x000),
    DN(___,0,0x000),
    DN(___,0,0x000),
    DN(___,0,0x000),
    DN(___,0,0x000),
    DN(___,0,0x000),
    DN(___,0,0x000),
    DN(___,0,0x000),
    DN(___,0,0x000),
    DN(___,0,0x000),
    DN(___,0,0x000),
    DN(___,0,0x000),
    DN(___,0,0x000),
    DN(___,0,0x000),
    DN(___,0,0x000),
    DN(___,0,0x000),
    DN(___,0,0x000),
    DN(___,0,0x000),
    DN(___,0,0x000),
    DN(___,0,0x000),
    DN(___,0,0x000),
    DN(___,0,0x000),
    DN(___,0,0x000),
    DN(___,0,0x000),
    DN(___,0,0x000),
};
static const unsigned char P21[] = {
    DN(___,0,0x4C5),
    DN(___,0,0x4C5),
    DN(Cs4,0,0xE03),
    DN(___,0,0x4C5),
    DN(___,0,0x4C5),
    DN(___,0,0x4C5),
    DN(___,0,0x4C5),
    DN(___,0,0x000),
    DN(C_5,1,0xC03),
    DN(___,0,0x000),
    DN(___,0,0x4C5),
    DN(___,0,0x4C5),
    DN(___,0,0x4C5),
    DN(___,0,0x4C5),
    DN(Cs4,0,0xE03),
    DN(___,0,0x4C5),
    DN(___,0,0x4C5),
    DN(___,0,0x4C5),
    DN(___,0,0x4C5),
    DN(___,0,0x000),
    DN(C_5,1,0xC03),
    DN(___,0,0x000),
    DN(___,0,0x4C5),
    DN(___,0,0x4C5),
    DN(___,0,0x4C5),
    DN(___,0,0x4C5),
    DN(Cs4,0,0xE03),
    DN(___,0,0x4C5),
    DN(___,0,0x4C5),
    DN(___,0,0x4C5),
    DN(___,0,0x4C5),
    DN(___,0,0x4C5),
    DN(___,0,0x4C5),
    DN(___,0,0x4C5),
    DN(___,0,0x4C5),
    DN(___,0,0x4C5),
    DN(___,0,0x4C5),
    DN(___,0,0x4C5),
    DN(___,0,0x4C5),
    DN(___,0,0x4C5),
    DN(___,0,0x4C5),
    DN(___,0,0x4C5),
    DN(___,0,0x4C5),
    DN(___,0,0x4C5),
    DN(___,0,0x4C5),
    DN(___,0,0x4C5),
    DN(___,0,0x4C5),
    DN(___,0,0x4C5),
    DN(___,0,0x4C5),
    DN(___,0,0x4C5),
    DN(___,0,0x4C5),
    DN(___,0,0x4C5),
    DN(___,0,0x4C5),
    DN(___,0,0x4C5),
    DN(___,0,0x4C5),
    DN(___,0,0x4C5),
    DN(___,0,0x4C5),
    DN(___,0,0x4C5),
    DN(___,0,0x4C5),
    DN(___,0,0x4C5),
    DN(___,0,0x4C5),
    DN(___,0,0x4C5),
    DN(___,0,0x4C5),
    DN(___,0,0x4C5),
};
static const unsigned char P22[] = {
    DN(F_4,5,0xC04),
    DN(___,0,0x000),
    DN(Gs4,5,0xC04),
    DN(___,0,0x000),
    DN(Ds5,5,0xC04),
    DN(___,0,0x000),
    DN(E_5,5,0xC04),
    DN(___,0,0x000),
    DN(E_5,5,0xC04),
    DN(___,0,0x000),
    DN(D_4,5,0xC04),
    DN(___,0,0x000),
    DN(F_4,5,0xC04),
    DN(___,0,0x000),
    DN(Gs4,5,0xC04),
    DN(___,0,0x000),
    DN(Ds5,5,0xC04),
    DN(___,0,0x000),
    DN(E_5,5,0xC04),
    DN(___,0,0x000),
    DN(E_5,5,0xC04),
    DN(___,0,0x000),
    DN(Ds5,5,0xC04),
    DN(___,0,0x000),
    DN(Ds4,5,0xC04),
    DN(___,0,0x000),
    DN(E_4,5,0xC04),
    DN(___,0,0x000),
    DN(F_4,5,0xC04),
    DN(___,0,0x000),
    DN(Fs4,5,0xC04),
    DN(___,0,0xC04),
    DN(___,0,0xC04),
    DN(___,0,0xC04),
    DN(___,0,0xC04),
    DN(___,0,0xC04),
    DN(___,0,0xC04),
    DN(___,0,0xC04),
    DN(___,0,0xC04),
    DN(___,0,0xC04),
    DN(___,0,0xC04),
    DN(___,0,0x000),
    DN(___,0,0x000),
    DN(___,0,0x000),
    DN(___,0,0x000),
    DN(___,0,0x000),
    DN(___,0,0x000),
    DN(___,0,0x000),
    DN(___,0,0x000),
    DN(___,0,0x000),
    DN(___,0,0x000),
    DN(___,0,0x000),
    DN(___,0,0x000),
    DN(___,0,0x000),
    DN(___,0,0x000),
    DN(___,0,0x000),
    DN(___,0,0x000),
    DN(___,0,0x000),
    DN(___,0,0x000),
    DN(___,0,0x000),
    DN(___,0,0x000),
    DN(___,0,0x000),
    DN(___,0,0x000),
    DN(___,0,0x000),
};
static const unsigned char P23[] = {
    DN(___,0,0x000),
    DN(___,0,0x000),
    DN(___,0,0x000),
    DN(___,0,0x000),
    DN(___,0,0x000),
    DN(___,0,0x000),
    DN(___,0,0x000),
    DN(___,0,0x000),
    DN(B_4,6,0xE03),
    DN(___,0,0x000),
    DN(___,0,0x000),
    DN(___,0,0x000),
    DN(___,0,0x000),
    DN(___,0,0x000),
    DN(___,0,0x000),
    DN(___,0,0x000),
    DN(___,0,0x000),
    DN(___,0,0x000),
    DN(B_4,6,0xE03),
    DN(___,0,0x000),
    DN(B_4,6,0xE03),
    DN(___,0,0x000),
    DN(B_4,6,0xE03),
    DN(___,0,0x000),
    DN(B_4,6,0xE03),
    DN(___,0,0x000),
    DN(B_4,6,0xE03),
    DN(___,0,0x000),
    DN(B_4,6,0xE03),
    DN(___,0,0x000),
    DN(B_4,6,0xE03),
    DN(___,0,0x000),
    DN(___,0,0x000),
    DN(___,0,0x000),
    DN(___,0,0x000),
    DN(___,0,0x000),
    DN(___,0,0x000),
    DN(___,0,0x000),
    DN(___,0,0x000),
    DN(___,0,0x000),
    DN(___,0,0x000),
    DN(___,0,0x000),
    DN(___,0,0x000),
    DN(___,0,0x000),
    DN(___,0,0x000),
    DN(___,0,0x000),
    DN(___,0,0x000),
    DN(___,0,0x000),
    DN(___,0,0x000),
    DN(___,0,0x000),
    DN(___,0,0x000),
    DN(___,0,0x000),
    DN(___,0,0x000),
    DN(___,0,0x000),
    DN(___,0,0x000),
    DN(___,0,0x000),
    DN(___,0,0x000),
    DN(___,0,0x000),
    DN(___,0,0x000),
    DN(___,0,0x000),
    DN(___,0,0x000),
    DN(___,0,0x000),
    DN(___,0,0x000),
    DN(___,0,0x000),
};

static const unsigned char* const order1[] = {P0,P0,P8,P12,P20};
static const unsigned char* const order2[] = {P1,P5,P9,P13,P21};
static const unsigned char* const order3[] = {P2,P6,P10,P14,P22};
static const unsigned char* const order4[] = {P0,P0,P11,P15,P23};

static const hUGEDutyInstr_t duty_instruments[] = {
    {8,0,240,0,128},
    {8,64,240,0,128},
    {8,128,240,0,128},
    {8,192,240,0,128},
    {8,0,241,0,128},
};
static const hUGEWaveInstr_t wave_instruments[] = {
    {0,32,0,0,128},
    {0,32,1,0,128},
    {0,32,2,0,128},
    {0,32,3,0,128},
    {0,32,4,0,128},
};
static const hUGENoiseInstr_t noise_instruments[] = {
    {240,0,0,0,0},
    {240,0,0,0,0},
    {240,0,0,0,0},
    {240,0,0,0,0},
    {240,0,0,0,0},
    {240,0,0,0,0},
};

static const unsigned char waves[] = {
    0,0,255,255,255,255,255,255,255,255,255,255,255,255,255,255,
    0,0,0,0,255,255,255,255,255,255,255,255,255,255,255,255,
    0,0,0,0,0,0,0,0,255,255,255,255,255,255,255,255,
    0,0,0,0,0,0,0,0,0,0,0,0,255,255,255,255,
    0,1,18,35,52,69,86,103,120,137,154,171,188,205,222,239,
};

const hUGESong_t song1 = {7, &order_cnt, order1, order2, order3,order4, duty_instruments, wave_instruments, noise_instruments, NULL, waves};
