#include "hUGEDriver.h"
#include <stddef.h>

static const unsigned char order_cnt = 2;

static const unsigned char P0[] = {
    DN(___,0,0x000),
    DN(Ds4,2,0xC04),
    DN(D_4,2,0xC04),
    DN(Cs4,2,0xC04),
    DN(C_4,2,0xC04),
    DN(B_3,2,0xC04),
    DN(As3,2,0xC04),
    DN(Ds4,2,0xC04),
    DN(D_4,2,0xC04),
    DN(Cs4,2,0xC04),
    DN(C_4,2,0xC04),
    DN(B_3,2,0xC04),
    DN(As3,2,0xC04),
    DN(Ds4,2,0xC04),
    DN(D_4,2,0xC04),
    DN(Cs4,2,0xC04),
    DN(C_4,2,0xC04),
    DN(B_3,2,0xC04),
    DN(As3,2,0xC04),
    DN(Ds4,2,0xC04),
    DN(D_4,2,0xC04),
    DN(Cs4,2,0xC04),
    DN(C_4,2,0xC04),
    DN(B_3,2,0xC04),
    DN(As3,2,0xC04),
    DN(Ds4,2,0xC04),
    DN(D_4,2,0xC04),
    DN(Cs4,2,0xC04),
    DN(C_4,2,0xC04),
    DN(B_3,2,0xC04),
    DN(As3,2,0xC04),
    DN(Ds4,2,0xC04),
    DN(D_4,2,0xC04),
    DN(Cs4,2,0xC04),
    DN(C_4,2,0xC04),
    DN(B_3,2,0xC04),
    DN(As3,2,0xC04),
    DN(Ds4,2,0xC04),
    DN(D_4,2,0xC04),
    DN(Cs4,2,0xC04),
    DN(C_4,2,0xC04),
    DN(B_3,2,0xC04),
    DN(As3,2,0xC04),
    DN(___,0,0xC04),
    DN(___,0,0xC04),
    DN(___,0,0xC04),
    DN(___,0,0xC04),
    DN(___,0,0xC04),
    DN(___,0,0xE00),
    DN(___,0,0x000),
    DN(___,0,0x000),
    DN(___,0,0x000),
    DN(___,0,0x000),
    DN(___,0,0x000),
    DN(___,0,0x000),
    DN(___,0,0x000),
    DN(___,0,0x000),
    DN(___,0,0x000),
    DN(___,0,0xE00),
    DN(___,0,0x000),
    DN(___,0,0x000),
    DN(___,0,0x000),
    DN(___,0,0x000),
    DN(___,0,0x000),
};
static const unsigned char P1[] = {
    DN(___,0,0xF06),
    DN(E_5,14,0xC04),
    DN(___,0,0xA01),
    DN(___,0,0x000),
    DN(___,0,0x000),
    DN(___,0,0x000),
    DN(___,0,0x472),
    DN(F_5,14,0xC04),
    DN(___,0,0x472),
    DN(___,0,0x000),
    DN(___,0,0x472),
    DN(___,0,0x000),
    DN(___,0,0x472),
    DN(E_5,14,0xC04),
    DN(___,0,0x000),
    DN(___,0,0x000),
    DN(___,0,0x472),
    DN(___,0,0x000),
    DN(___,0,0x472),
    DN(F_5,14,0xC04),
    DN(___,0,0x472),
    DN(___,0,0x000),
    DN(___,0,0x000),
    DN(___,0,0x000),
    DN(___,0,0x472),
    DN(E_5,14,0xC04),
    DN(___,0,0x000),
    DN(___,0,0x000),
    DN(___,0,0x472),
    DN(___,0,0x000),
    DN(___,0,0x472),
    DN(F_5,14,0xC04),
    DN(___,0,0x472),
    DN(___,0,0x000),
    DN(___,0,0x000),
    DN(___,0,0x000),
    DN(___,0,0x472),
    DN(E_5,14,0xC04),
    DN(___,0,0x000),
    DN(___,0,0x000),
    DN(___,0,0x000),
    DN(___,0,0x000),
    DN(___,0,0x000),
    DN(___,0,0x472),
    DN(___,14,0x472),
    DN(___,0,0x472),
    DN(___,14,0x472),
    DN(___,0,0x472),
    DN(E_5,14,0xC03),
    DN(___,0,0x472),
    DN(___,14,0x472),
    DN(___,0,0x472),
    DN(___,14,0x472),
    DN(___,0,0xA06),
    DN(___,0,0x000),
    DN(___,0,0x000),
    DN(___,0,0x000),
    DN(___,0,0x000),
    DN(___,0,0x000),
    DN(___,0,0x000),
    DN(___,0,0x000),
    DN(___,0,0x000),
    DN(___,0,0x000),
    DN(___,0,0x000),
};
static const unsigned char P2[] = {
    DN(___,0,0xE00),
    DN(___,0,0x000),
    DN(___,0,0x000),
    DN(___,0,0x000),
    DN(___,0,0x000),
    DN(___,0,0x000),
    DN(___,0,0x000),
    DN(F_5,14,0xC04),
    DN(___,0,0xE00),
    DN(___,0,0x000),
    DN(___,0,0x000),
    DN(___,0,0x000),
    DN(___,0,0x000),
    DN(___,0,0x000),
    DN(___,0,0x000),
    DN(___,0,0x000),
    DN(___,0,0x000),
    DN(___,0,0x000),
    DN(___,0,0x000),
    DN(F_5,14,0xC04),
    DN(___,0,0xE00),
    DN(___,0,0x000),
    DN(___,0,0x000),
    DN(___,0,0x000),
    DN(___,0,0x000),
    DN(___,0,0x000),
    DN(___,0,0x000),
    DN(___,0,0x000),
    DN(___,0,0x000),
    DN(___,0,0x000),
    DN(___,0,0x000),
    DN(F_5,14,0xC04),
    DN(___,0,0xE00),
    DN(___,0,0x000),
    DN(___,0,0x000),
    DN(___,0,0x000),
    DN(___,0,0x000),
    DN(___,0,0x000),
    DN(___,0,0x000),
    DN(___,0,0x000),
    DN(___,0,0x000),
    DN(___,0,0x000),
    DN(___,0,0x000),
    DN(___,0,0x000),
    DN(___,0,0x000),
    DN(___,0,0x000),
    DN(___,0,0x000),
    DN(___,0,0x000),
    DN(___,0,0x000),
    DN(___,0,0x000),
    DN(___,0,0x000),
    DN(___,0,0x000),
    DN(___,0,0x000),
    DN(___,0,0x000),
    DN(___,0,0x000),
    DN(___,0,0x000),
    DN(___,0,0x000),
    DN(___,0,0x000),
    DN(___,0,0xE00),
    DN(___,0,0x000),
    DN(___,0,0x000),
    DN(___,0,0x000),
    DN(___,0,0x000),
    DN(___,0,0x000),
};
static const unsigned char P3[] = {
    DN(___,0,0x000),
    DN(___,0,0x000),
    DN(___,0,0x000),
    DN(___,0,0x000),
    DN(___,0,0x000),
    DN(___,0,0x000),
    DN(___,0,0xC04),
    DN(B_6,2,0xC05),
    DN(___,0,0xC04),
    DN(B_7,1,0x8F7),
    DN(___,0,0xE00),
    DN(___,0,0x000),
    DN(___,0,0x000),
    DN(___,0,0x000),
    DN(___,0,0x000),
    DN(___,0,0x000),
    DN(___,0,0x000),
    DN(___,0,0x000),
    DN(___,0,0xC04),
    DN(B_6,2,0xC05),
    DN(___,0,0xC04),
    DN(B_7,1,0x8F7),
    DN(___,0,0xE00),
    DN(___,0,0x000),
    DN(___,0,0x000),
    DN(___,0,0x000),
    DN(___,0,0x000),
    DN(___,0,0x000),
    DN(___,0,0x000),
    DN(___,0,0x000),
    DN(___,0,0xC04),
    DN(B_6,2,0xC05),
    DN(___,0,0xC04),
    DN(B_7,1,0x8F7),
    DN(___,0,0xE00),
    DN(___,0,0x000),
    DN(___,0,0x000),
    DN(___,0,0x000),
    DN(___,0,0x000),
    DN(___,0,0x000),
    DN(___,0,0x000),
    DN(___,0,0x000),
    DN(___,0,0x000),
    DN(___,0,0x000),
    DN(___,0,0x000),
    DN(___,0,0x000),
    DN(___,0,0x000),
    DN(___,0,0x000),
    DN(___,0,0x000),
    DN(___,0,0x000),
    DN(___,0,0x000),
    DN(___,0,0x000),
    DN(___,0,0x000),
    DN(___,0,0x000),
    DN(___,0,0x000),
    DN(___,0,0x000),
    DN(___,0,0x000),
    DN(___,0,0x000),
    DN(___,0,0xE00),
    DN(___,0,0x000),
    DN(___,0,0x000),
    DN(___,0,0x000),
    DN(___,0,0x000),
    DN(___,0,0x000),
};

static const unsigned char* const order1[] = {P0};
static const unsigned char* const order2[] = {P1};
static const unsigned char* const order3[] = {P2};
static const unsigned char* const order4[] = {P3};

static const hUGEDutyInstr_t duty_instruments[] = {
    {8,0,240,0,128},
    {8,64,240,0,128},
    {8,128,240,0,128},
    {8,192,240,0,128},
    {8,0,241,0,128},
    {8,64,241,0,128},
    {8,128,241,0,128},
    {8,192,241,0,128},
    {8,128,240,0,128},
    {8,128,240,0,128},
    {8,128,240,0,128},
    {8,128,240,0,128},
    {8,128,240,0,128},
    {8,128,240,0,128},
};
static const hUGEWaveInstr_t wave_instruments[] = {
    {0,32,0,0,128},
    {0,32,1,0,128},
    {0,32,2,0,128},
    {0,32,3,0,128},
    {0,32,4,0,128},
    {0,32,5,0,128},
    {0,32,6,0,128},
    {0,32,7,0,128},
    {0,32,8,0,128},
    {0,32,9,0,128},
    {0,32,10,0,128},
    {0,32,11,0,128},
    {0,32,12,0,128},
    {0,32,13,0,128},
};
static const hUGENoiseInstr_t noise_instruments[] = {
    {240,0,0,0,0},
    {240,0,0,0,0},
};

static const unsigned char waves[] = {
    0,0,255,255,255,255,255,255,255,255,255,255,255,255,255,255,
    0,0,0,0,255,255,255,255,255,255,255,255,255,255,255,255,
    0,0,0,0,0,0,0,0,255,255,255,255,255,255,255,255,
    0,0,0,0,0,0,0,0,0,0,0,0,255,255,255,255,
    0,1,18,35,52,69,86,103,120,137,154,171,188,205,222,239,
    254,220,186,152,118,84,50,16,18,52,86,120,154,188,222,255,
    122,205,219,117,33,19,104,189,220,151,65,1,71,156,221,184,
    15,15,15,15,15,15,15,15,15,15,15,15,15,15,15,15,
    254,252,250,248,246,244,242,240,242,244,246,248,250,252,254,255,
    254,221,204,187,170,153,136,119,138,189,241,36,87,138,189,238,
    132,17,97,237,87,71,90,173,206,163,23,121,221,32,3,71,
    165,198,28,194,113,216,42,213,125,145,229,25,178,116,170,190,
    100,153,61,235,229,101,236,109,180,5,17,69,226,139,161,66,
    118,204,130,38,166,215,9,173,233,28,73,38,167,43,209,55,
};

const hUGESong_t m_sLoseLife = {7, &order_cnt, order1, order2, order3,order4, duty_instruments, wave_instruments, noise_instruments, NULL, waves};
